<?xml version="1.0" standalone="no"?>
<!DOCTYPE svg PUBLIC "-//W3C//DTD SVG 20010904//EN"
 "http://www.w3.org/TR/2001/REC-SVG-20010904/DTD/svg10.dtd">
<svg version="1.0" xmlns="http://www.w3.org/2000/svg"
 width="700.000000pt" height="700.000000pt" viewBox="0 0 700.000000 700.000000"
 preserveAspectRatio="xMidYMid meet">
<metadata>
Created by potrace 1.11, written by Peter Selinger 2001-2013
</metadata>
<g transform="translate(0.000000,700.000000) scale(0.100000,-0.100000)"
fill="#000000" stroke="none">
<path d="M590 6983 c-59 -20 -108 -56 -149 -109 -66 -86 -61 182 -61 -3374 0
-2857 2 -3242 15 -3287 19 -64 90 -144 159 -181 l51 -27 2115 0 2115 0 72 23
c86 27 207 105 263 170 52 61 105 162 127 243 17 60 18 184 18 2045 0 2192 6
2019 -67 2051 l-38 17 0 96 0 96 35 13 c75 27 70 -32 70 901 0 766 -1 840 -18
899 -28 101 -84 199 -157 271 -78 77 -160 123 -266 150 -76 20 -118 20 -2158
20 -1865 -1 -2086 -3 -2126 -17z m410 -2649 l0 -2456 29 -29 c18 -17 40 -29
56 -29 l26 0 -3 -102 -3 -102 -32 -8 c-17 -5 -41 -20 -52 -34 -21 -26 -21 -35
-21 -695 l0 -669 -176 0 -176 0 -29 29 -29 29 0 3232 0 3232 29 29 29 29 176
0 176 0 0 -2456z m3270 1397 c15 -30 14 -1153 -2 -1169 -9 -9 -268 -12 -1105
-12 -1070 0 -1093 0 -1103 19 -6 13 -10 213 -10 581 0 368 4 568 10 581 10 19
33 19 1105 19 1072 0 1095 0 1105 -19z"/>
<path d="M6090 6984 c-152 -41 -270 -173 -300 -334 -7 -37 -9 -1040 -8 -2975
l3 -2920 170 -364 c153 -328 172 -365 201 -378 38 -19 94 -11 117 15 9 10 91
179 181 377 l166 360 0 883 0 884 -29 29 c-59 58 -159 29 -175 -52 -3 -18 -6
-389 -6 -825 l0 -794 -210 0 -210 0 0 2365 0 2365 210 0 210 0 0 -1360 c0
-1467 -2 -1406 51 -1444 40 -27 86 -21 125 18 l34 34 0 1884 c0 1539 -3 1892
-14 1933 -60 227 -289 360 -516 299z m320 -1019 l0 -135 -210 0 -210 0 0 135
0 135 210 0 210 0 0 -135z m-60 -5282 c1 -20 -145 -322 -151 -316 -8 8 -149
309 -149 318 0 8 300 6 300 -2z"/>
</g>
</svg>
